<svg width="60" height="60" viewBox="0 0 60 60" fill="none" xmlns="http://www.w3.org/2000/svg">
<path d="M7.68 28.08H1.2C0.5376 28.08 0 28.6176 0 29.28V47.76C0 53.7168 4.8432 58.56 10.8 58.56H30.48C36.4368 58.56 41.28 53.7168 41.28 47.76V29.28C41.28 28.6176 40.7424 28.08 40.08 28.08H34.8V14.16C34.8 6.3504 28.4496 0 20.64 0C12.8304 0 6.48 6.3504 6.48 14.16V20.64H8.88V14.16C8.88 7.6752 14.1552 2.4 20.64 2.4C27.1248 2.4 32.4 7.6752 32.4 14.16V28.08H7.68ZM38.88 47.76C38.88 52.392 35.112 56.16 30.48 56.16H10.8C6.168 56.16 2.4 52.392 2.4 47.76V30.48H7.68H33.6H38.88V47.76Z" fill="black"/>
<path d="M20.64 37.7998C17.5968 37.7998 15.12 40.2766 15.12 43.3198C15.12 46.363 17.5968 48.8398 20.64 48.8398C23.6832 48.8398 26.16 46.363 26.16 43.3198C26.16 40.2766 23.6832 37.7998 20.64 37.7998ZM20.64 46.4398C18.9216 46.4398 17.52 45.0382 17.52 43.3198C17.52 41.6014 18.9216 40.1998 20.64 40.1998C22.3584 40.1998 23.76 41.6014 23.76 43.3198C23.76 45.0382 22.3584 46.4398 20.64 46.4398Z" fill="black"/>
</svg>
