<svg width="60" height="60" viewBox="0 0 60 60" fill="none" xmlns="http://www.w3.org/2000/svg">
<path d="M39.64 25.1196C40.1296 25.1196 40.5616 24.8268 40.7488 24.3804C40.9312 23.9292 40.8304 23.4156 40.4848 23.0748L30.5344 13.1196L40.4848 3.16923C40.8256 2.82843 40.9312 2.31003 40.7488 1.86363C40.5616 1.41243 40.1248 1.11963 39.64 1.11963H7.24001C6.57761 1.11963 6.04001 1.65723 6.04001 2.31963V57.2796H0.76001V59.6796H13.72V57.2796H8.44001V25.1196H39.64ZM8.44001 3.51963H36.7408L27.9904 12.2748C27.52 12.7452 27.52 13.5036 27.9904 13.974L36.7408 22.7196H8.44001V3.51963Z" fill="black"/>
</svg>
