<svg width="60" height="60" viewBox="0 0 60 60" fill="none" xmlns="http://www.w3.org/2000/svg">
<g clip-path="url(#clip0_87_11812)">
<path d="M49.92 22.2402H47.52V37.3602H49.92V22.2402Z" fill="black"/>
<path d="M58.56 13.5999H56.16V45.9999H58.56V13.5999Z" fill="black"/>
<path d="M11.04 22.2402H8.63998V37.3602H11.04V22.2402Z" fill="black"/>
<path d="M2.39997 13.5999H-3.05176e-05V45.9999H2.39997V13.5999Z" fill="black"/>
<path d="M41.16 52.6C41.8224 52.6 42.36 52.0624 42.36 51.4V8.2C42.36 7.5376 41.8224 7 41.16 7H17.4C16.7376 7 16.2 7.5376 16.2 8.2V51.4C16.2 52.0624 16.7376 52.6 17.4 52.6H41.16ZM18.6 9.4H39.9552V50.2H18.6V9.4Z" fill="black"/>
</g>
<defs>
<clipPath id="clip0_87_11812">
<rect width="60" height="60" fill="white"/>
</clipPath>
</defs>
</svg>
