<svg width="60" height="60" viewBox="0 0 60 60" fill="none" xmlns="http://www.w3.org/2000/svg">
<g clip-path="url(#clip0_87_7552)">
<path d="M29.28 0C13.1376 0 0 13.1376 0 29.28C0 45.4224 13.1328 58.56 29.28 58.56C45.4272 58.56 58.56 45.4272 58.56 29.28C58.56 13.1328 45.4224 0 29.28 0ZM53.2944 17.28H40.8288C39.6432 11.0208 37.5504 5.9904 34.9104 3.0048C42.9792 4.7328 49.6896 10.0944 53.2944 17.28ZM39.5088 29.28C39.5088 32.7648 39.2208 35.9472 38.784 38.88H19.7808C19.3392 35.9472 19.0512 32.7648 19.0512 29.28C19.0512 25.7952 19.3392 22.6128 19.776 19.68H38.784C39.2208 22.6128 39.5088 25.7952 39.5088 29.28ZM29.28 56.16C25.7136 56.16 21.9936 50.472 20.184 41.28H38.376C36.5712 50.4672 32.8464 56.16 29.28 56.16ZM20.184 17.28C21.9936 8.0928 25.7136 2.4 29.28 2.4C32.8464 2.4 36.5712 8.088 38.376 17.28H20.184ZM23.6496 3.0048C21.0096 5.9904 18.9168 11.0208 17.7312 17.28H5.2656C8.8704 10.0944 15.5808 4.7328 23.6496 3.0048ZM4.2048 19.68H17.3328C16.9008 22.68 16.6512 25.896 16.6512 29.28C16.6512 32.664 16.896 35.88 17.3328 38.88H4.2048C3.0576 35.8944 2.4 32.664 2.4 29.28C2.4 25.896 3.0576 22.6656 4.2048 19.68ZM5.2656 41.28H17.7312C18.9168 47.5392 21.0096 52.5696 23.6496 55.5552C15.5856 53.8272 8.8704 48.4656 5.2656 41.28ZM34.9104 55.5552C37.5504 52.5696 39.6432 47.5392 40.8288 41.28H53.2944C49.6896 48.4656 42.9744 53.8272 34.9104 55.5552ZM54.3552 38.88H41.2272C41.664 35.88 41.9088 32.664 41.9088 29.28C41.9088 25.896 41.664 22.68 41.2272 19.68H54.3552C55.5024 22.6656 56.16 25.896 56.16 29.28C56.16 32.664 55.5024 35.8944 54.3552 38.88Z" fill="black"/>
</g>
<defs>
<clipPath id="clip0_87_7552">
<rect width="60" height="60" fill="white"/>
</clipPath>
</defs>
</svg>
