<svg width="60" height="60" viewBox="0 0 60 60" fill="none" xmlns="http://www.w3.org/2000/svg">
<g clip-path="url(#clip0_87_7556)">
<mask id="path-1-inside-1_87_7556" fill="white">
<path fill-rule="evenodd" clip-rule="evenodd" d="M28.1511 7.19788e-08C28.1419 0.0226905 28.1329 0.0456932 28.1243 0.069008L23.7383 11.922C21.7126 17.3964 17.3964 21.7126 11.922 23.7383L0.0690122 28.1243C0.0456959 28.1329 0.0226918 28.1419 0 28.1511L7.1979e-08 31.8488C0.0226905 31.8581 0.0456932 31.8671 0.069008 31.8757L11.922 36.2617C17.3964 38.2874 21.7126 42.6036 23.7383 48.078L28.1243 59.931C28.1329 59.9543 28.1419 59.9773 28.1511 60H31.8488C31.8581 59.9773 31.8671 59.9543 31.8757 59.931L36.2617 48.078C38.2874 42.6036 42.6036 38.2874 48.078 36.2617L59.931 31.8757C59.9543 31.8671 59.9773 31.8581 60 31.8488V28.1511C59.9773 28.1419 59.9543 28.1329 59.931 28.1243L48.078 23.7383C42.6036 21.7126 38.2874 17.3964 36.2617 11.922L31.8757 0.0690122C31.8671 0.0456959 31.8581 0.0226918 31.8488 0L28.1511 7.19788e-08Z"/>
</mask>
<path d="M28.1243 0.069008L30.5627 0.971302L30.5627 0.971273L28.1243 0.069008ZM28.1511 7.19788e-08L28.1511 -2.6L26.4047 -2.6L25.7443 -0.983287L28.1511 7.19788e-08ZM23.7383 11.922L26.1767 12.8243L26.1767 12.8243L23.7383 11.922ZM11.922 23.7383L11.0197 21.2999L11.0197 21.2999L11.922 23.7383ZM0.0690122 28.1243L0.971227 30.5627L0.971307 30.5627L0.0690122 28.1243ZM0 28.1511L-0.983409 25.7443L-2.6 26.4048L-2.6 28.1511L0 28.1511ZM7.1979e-08 31.8488L-2.6 31.8488L-2.6 33.5953L-0.983287 34.2557L7.1979e-08 31.8488ZM0.069008 31.8757L0.971303 29.4373L0.971273 29.4373L0.069008 31.8757ZM11.922 36.2617L11.0197 38.7001L11.0197 38.7001L11.922 36.2617ZM23.7383 48.078L26.1767 47.1757L26.1767 47.1757L23.7383 48.078ZM28.1243 59.931L30.5627 59.0287L30.5627 59.0287L28.1243 59.931ZM28.1511 60L25.7443 60.9833L26.4048 62.6H28.1511V60ZM31.8488 60V62.6H33.5951L34.2557 60.9835L31.8488 60ZM31.8757 59.931L29.4373 59.0287L29.4373 59.0287L31.8757 59.931ZM36.2617 48.078L38.7001 48.9803L38.7001 48.9803L36.2617 48.078ZM48.078 36.2617L47.1757 33.8233L47.1757 33.8233L48.078 36.2617ZM59.931 31.8757L59.0287 29.4373L59.0287 29.4373L59.931 31.8757ZM60 31.8488L60.9833 34.2557L62.6 33.5952V31.8488H60ZM60 28.1511H62.6V26.4049L60.9835 25.7443L60 28.1511ZM59.931 28.1243L59.0287 30.5627L59.0287 30.5627L59.931 28.1243ZM48.078 23.7383L48.9803 21.2999L48.9803 21.2999L48.078 23.7383ZM36.2617 11.922L33.8233 12.8243L33.8233 12.8243L36.2617 11.922ZM31.8757 0.0690122L29.4373 0.971227L29.4373 0.971306L31.8757 0.0690122ZM31.8488 0L34.2557 -0.983409L33.5952 -2.6L31.8488 -2.6L31.8488 0ZM30.5627 0.971273C30.5613 0.975165 30.5597 0.979173 30.558 0.983287L25.7443 -0.983287C25.724 -0.933792 25.7046 -0.883779 25.6859 -0.833257L30.5627 0.971273ZM26.1767 12.8243L30.5627 0.971302L25.6859 -0.833286L21.2999 11.0197L26.1767 12.8243ZM12.8243 26.1767C19.0103 23.8877 23.8877 19.0103 26.1767 12.8243L21.2999 11.0197C19.5375 15.7824 15.7824 19.5375 11.0197 21.2999L12.8243 26.1767ZM0.971307 30.5627L12.8243 26.1767L11.0197 21.2999L-0.833282 25.6859L0.971307 30.5627ZM0.983409 30.558C0.979182 30.5597 0.975117 30.5613 0.971227 30.5627L-0.833203 25.6859C-0.883725 25.7045 -0.933798 25.724 -0.983409 25.7443L0.983409 30.558ZM2.6 31.8488L2.6 28.1511L-2.6 28.1511L-2.6 31.8488L2.6 31.8488ZM0.971273 29.4373C0.975165 29.4387 0.979173 29.4403 0.983287 29.442L-0.983287 34.2557C-0.933792 34.276 -0.883779 34.2954 -0.833257 34.3141L0.971273 29.4373ZM12.8243 33.8233L0.971303 29.4373L-0.833287 34.3141L11.0197 38.7001L12.8243 33.8233ZM26.1767 47.1757C23.8877 40.9896 19.0103 36.1123 12.8243 33.8233L11.0197 38.7001C15.7824 40.4625 19.5375 44.2176 21.2999 48.9803L26.1767 47.1757ZM30.5627 59.0287L26.1767 47.1757L21.2999 48.9803L25.6859 60.8333L30.5627 59.0287ZM30.558 59.0167C30.5598 59.0209 30.5613 59.0249 30.5627 59.0287L25.6859 60.8333C25.7045 60.8837 25.724 60.9337 25.7443 60.9833L30.558 59.0167ZM31.8488 57.4H28.1511V62.6H31.8488V57.4ZM29.4373 59.0287C29.4387 59.0249 29.4403 59.0209 29.442 59.0165L34.2557 60.9835C34.276 60.9338 34.2955 60.8837 34.3141 60.8332L29.4373 59.0287ZM33.8233 47.1757L29.4373 59.0287L34.3141 60.8333L38.7001 48.9803L33.8233 47.1757ZM47.1757 33.8233C40.9896 36.1123 36.1123 40.9897 33.8233 47.1757L38.7001 48.9803C40.4625 44.2176 44.2176 40.4625 48.9803 38.7001L47.1757 33.8233ZM59.0287 29.4373L47.1757 33.8233L48.9803 38.7001L60.8333 34.3141L59.0287 29.4373ZM59.0167 29.442C59.0209 29.4402 59.0249 29.4387 59.0287 29.4373L60.8333 34.3141C60.8837 34.2955 60.9337 34.276 60.9833 34.2557L59.0167 29.442ZM57.4 28.1511V31.8488H62.6V28.1511H57.4ZM59.0287 30.5627C59.0249 30.5613 59.0209 30.5597 59.0165 30.558L60.9835 25.7443C60.9338 25.724 60.8837 25.7045 60.8332 25.6859L59.0287 30.5627ZM47.1757 26.1767L59.0287 30.5627L60.8333 25.6859L48.9803 21.2999L47.1757 26.1767ZM33.8233 12.8243C36.1123 19.0103 40.9897 23.8877 47.1757 26.1767L48.9803 21.2999C44.2176 19.5375 40.4625 15.7824 38.7001 11.0197L33.8233 12.8243ZM29.4373 0.971306L33.8233 12.8243L38.7001 11.0197L34.3141 -0.833282L29.4373 0.971306ZM29.442 0.983409C29.4403 0.979182 29.4387 0.975117 29.4373 0.971227L34.3141 -0.833203C34.2955 -0.883725 34.276 -0.933798 34.2557 -0.983409L29.442 0.983409ZM28.1511 2.6L31.8488 2.6L31.8488 -2.6L28.1511 -2.6L28.1511 2.6Z" fill="black" mask="url(#path-1-inside-1_87_7556)"/>
</g>
<defs>
<clipPath id="clip0_87_7556">
<rect width="60" height="60" fill="white"/>
</clipPath>
</defs>
</svg>
