<svg width="60" height="60" viewBox="0 0 60 60" fill="none" xmlns="http://www.w3.org/2000/svg">
<path d="M8.68 16.36C12.9136 16.36 16.36 12.9136 16.36 8.68C16.36 4.4464 12.9136 1 8.68 1C4.4464 1 1 4.4464 1 8.68C1 12.9136 4.4464 16.36 8.68 16.36ZM8.68 3.4C11.5888 3.4 13.96 5.7664 13.96 8.68C13.96 11.5936 11.5888 13.96 8.68 13.96C5.7712 13.96 3.4 11.5888 3.4 8.68C3.4 5.7712 5.7712 3.4 8.68 3.4Z" fill="black"/>
<path d="M8.68 59.56C12.9136 59.56 16.36 56.1136 16.36 51.88C16.36 47.6464 12.9136 44.2 8.68 44.2C4.4464 44.2 1 47.6464 1 51.88C1 56.1136 4.4464 59.56 8.68 59.56ZM8.68 46.6C11.5888 46.6 13.96 48.9664 13.96 51.88C13.96 54.7936 11.5936 57.16 8.68 57.16C5.7664 57.16 3.4 54.7936 3.4 51.88C3.4 48.9664 5.7712 46.6 8.68 46.6Z" fill="black"/>
<path d="M8.68 37.9599C12.9136 37.9599 16.36 34.5135 16.36 30.2799C16.36 26.0463 12.9136 22.5999 8.68 22.5999C4.4464 22.5999 1 26.0463 1 30.2799C1 34.5135 4.4464 37.9599 8.68 37.9599ZM8.68 24.9999C11.5888 24.9999 13.96 27.3663 13.96 30.2799C13.96 33.1935 11.5888 35.5599 8.68 35.5599C5.7712 35.5599 3.4 33.1887 3.4 30.2799C3.4 27.3711 5.7712 24.9999 8.68 24.9999Z" fill="black"/>
<path d="M30.28 1C26.0464 1 22.6 4.4464 22.6 8.68C22.6 12.9136 26.0464 16.36 30.28 16.36C34.5136 16.36 37.96 12.9136 37.96 8.68C37.96 4.4464 34.5136 1 30.28 1ZM30.28 13.96C27.3712 13.96 25 11.5936 25 8.68C25 5.7664 27.3712 3.4 30.28 3.4C33.1888 3.4 35.56 5.7664 35.56 8.68C35.56 11.5936 33.1888 13.96 30.28 13.96Z" fill="black"/>
<path d="M30.28 44.2C26.0464 44.2 22.6 47.6464 22.6 51.88C22.6 56.1136 26.0464 59.56 30.28 59.56C34.5136 59.56 37.96 56.1136 37.96 51.88C37.96 47.6464 34.5136 44.2 30.28 44.2ZM30.28 57.16C27.3712 57.16 25 54.7936 25 51.88C25 48.9664 27.3664 46.6 30.28 46.6C33.1936 46.6 35.56 48.9664 35.56 51.88C35.56 54.7936 33.1888 57.16 30.28 57.16Z" fill="black"/>
<path d="M30.28 22.5999C26.0464 22.5999 22.6 26.0463 22.6 30.2799C22.6 34.5135 26.0464 37.9599 30.28 37.9599C34.5136 37.9599 37.96 34.5135 37.96 30.2799C37.96 26.0463 34.5136 22.5999 30.28 22.5999ZM30.28 35.5599C27.3712 35.5599 25 33.1887 25 30.2799C25 27.3711 27.3712 24.9999 30.28 24.9999C33.1888 24.9999 35.56 27.3711 35.56 30.2799C35.56 33.1887 33.1888 35.5599 30.28 35.5599Z" fill="black"/>
<path d="M51.88 1C47.6464 1 44.2 4.4464 44.2 8.68C44.2 12.9136 47.6464 16.36 51.88 16.36C56.1136 16.36 59.56 12.9136 59.56 8.68C59.56 4.4464 56.1136 1 51.88 1ZM51.88 13.96C48.9712 13.96 46.6 11.5936 46.6 8.68C46.6 5.7664 48.9664 3.4 51.88 3.4C54.7936 3.4 57.16 5.7664 57.16 8.68C57.16 11.5936 54.7888 13.96 51.88 13.96Z" fill="black"/>
<path d="M51.88 44.2C47.6464 44.2 44.2 47.6464 44.2 51.88C44.2 56.1136 47.6464 59.56 51.88 59.56C56.1136 59.56 59.56 56.1136 59.56 51.88C59.56 47.6464 56.1136 44.2 51.88 44.2ZM51.88 57.16C48.9712 57.16 46.6 54.7936 46.6 51.88C46.6 48.9664 48.9664 46.6 51.88 46.6C54.7936 46.6 57.16 48.9664 57.16 51.88C57.16 54.7936 54.7888 57.16 51.88 57.16Z" fill="black"/>
<path d="M51.88 22.5999C47.6464 22.5999 44.2 26.0463 44.2 30.2799C44.2 34.5135 47.6464 37.9599 51.88 37.9599C56.1136 37.9599 59.56 34.5135 59.56 30.2799C59.56 26.0463 56.1136 22.5999 51.88 22.5999ZM51.88 35.5599C48.9712 35.5599 46.6 33.1935 46.6 30.2799C46.6 27.3663 48.9664 24.9999 51.88 24.9999C54.7936 24.9999 57.16 27.3663 57.16 30.2799C57.16 33.1935 54.7888 35.5599 51.88 35.5599Z" fill="black"/>
</svg>
