<svg width="60" height="60" viewBox="0 0 60 60" fill="none" xmlns="http://www.w3.org/2000/svg">
<path d="M52.3539 24.2896L55.1139 20.7136C55.4115 20.3296 55.4451 19.8016 55.2051 19.3792L50.8851 11.896C50.6403 11.4784 50.1795 11.2192 49.6851 11.3056L45.1827 11.9056C43.2195 12.1744 41.1123 11.7088 39.0723 10.5328C37.0707 9.3952 35.6067 7.8064 34.8435 5.944L33.1155 1.744C32.9283 1.2928 32.4915 1 32.0019 1H23.3619C22.8723 1 22.4403 1.2928 22.2531 1.744L20.5203 5.944C19.7571 7.8064 18.2931 9.3952 16.2291 10.576C14.2563 11.7184 12.1539 12.1696 10.1811 11.9152L5.68351 11.3104C5.20351 11.2192 4.72831 11.4784 4.48351 11.9008L0.163514 19.384C-0.0812863 19.8016 -0.0428857 20.3296 0.249914 20.7136L3.00991 24.2896C4.25311 25.8976 4.90111 27.9136 4.88191 30.136V30.4384C4.90111 32.6464 4.25311 34.6672 3.00991 36.2752L0.249914 39.8464C-0.0476857 40.2304 -0.0812859 40.7584 0.158714 41.1808L4.47871 48.664C4.72351 49.0864 5.19871 49.3408 5.67871 49.2544L10.1811 48.6544C12.1491 48.3856 14.2515 48.8464 16.2915 50.0272C18.2883 51.1648 19.7523 52.7536 20.5155 54.6208L22.2435 58.8208C22.4355 59.2672 22.8723 59.56 23.3619 59.56H32.0019C32.4915 59.56 32.9235 59.2672 33.1107 58.816L34.8387 54.616C35.6019 52.7536 37.0659 51.1648 39.1299 49.9888C41.1027 48.8464 43.2195 48.4 45.1779 48.6496L49.6803 49.2496C50.1699 49.336 50.6355 49.0816 50.8803 48.6592L55.2003 41.176C55.4451 40.7536 55.4067 40.2256 55.1091 39.8416L52.3539 36.2704C51.1107 34.6624 50.4627 32.6464 50.4819 30.424V30.1216C50.4627 27.9136 51.1107 25.8976 52.3539 24.2896ZM50.4483 37.7392L52.7187 40.6768L49.2051 46.768L45.5043 46.2736C42.9987 45.9424 40.3827 46.504 37.8819 47.9392C35.4147 49.3504 33.6003 51.3424 32.6259 53.704L31.2003 57.16H24.1635L22.7427 53.6992C21.7683 51.3376 19.9539 49.3456 17.4339 47.9008C14.9955 46.4992 12.3843 45.9376 9.86911 46.2688L6.16831 46.7632L2.65471 40.672L4.92511 37.7344C6.48511 35.6992 7.30591 33.1696 7.28191 30.1456C7.30591 27.3952 6.48511 24.8608 4.91551 22.8256L2.64511 19.8832L6.15871 13.792L9.85951 14.2864C12.3699 14.632 14.9859 14.056 17.4819 12.6208C19.9539 11.2096 21.7683 9.2176 22.7427 6.8608L24.1635 3.4H31.2051L32.6259 6.8608C33.6003 9.2224 35.4147 11.2144 37.9347 12.6592C40.3731 14.0608 42.9987 14.6464 45.4995 14.2912L49.2003 13.7968L52.7139 19.888L50.4435 22.8256C48.8739 24.8656 48.0531 27.3952 48.0771 30.4192C48.0579 33.1696 48.8787 35.6992 50.4483 37.7392Z" fill="black"/>
<path d="M27.6819 18.2803C21.0627 18.2803 15.6819 23.6659 15.6819 30.2803C15.6819 36.8947 21.0627 42.2803 27.6819 42.2803C34.3011 42.2803 39.6819 36.8947 39.6819 30.2803C39.6819 23.6659 34.3011 18.2803 27.6819 18.2803ZM27.6819 39.8803C22.3875 39.8803 18.0819 35.5747 18.0819 30.2803C18.0819 24.9859 22.3875 20.6803 27.6819 20.6803C32.9763 20.6803 37.2819 24.9859 37.2819 30.2803C37.2819 35.5747 32.9763 39.8803 27.6819 39.8803Z" fill="black"/>
</svg>
