<svg width="60" height="60" viewBox="0 0 60 60" fill="none" xmlns="http://www.w3.org/2000/svg">
<path d="M51.5296 24.6592L58.0096 18.1744C58.2352 17.9536 58.36 17.6464 58.36 17.3296C58.36 17.0128 58.2352 16.7056 58.0096 16.48L51.5296 10L49.8304 11.6992L54.2608 16.1296H35.56C35.2432 16.1296 34.936 16.2544 34.7104 16.48L22.1008 29.0896H1V31.4896H22.1008L34.7104 44.0992C34.936 44.3248 35.2384 44.4496 35.56 44.4496H54.2608L49.8304 48.88L51.5296 50.5792L58.0096 44.0992C58.2352 43.8736 58.36 43.5712 58.36 43.2496C58.36 42.928 58.2352 42.6256 58.0096 42.4L51.5296 35.9152L49.8304 37.6144L54.2608 42.0496H36.0592L24.2944 30.2896L36.0544 18.5296H54.2608L49.8304 22.9648L51.5296 24.6592Z" fill="black"/>
</svg>
